<svg xmlns="http://www.w3.org/2000/svg" version="1.1" viewBox="-5.0 -10.0 110.0 135.0">
 <path d="m68.316 17.691c-2.0859-1.7812-4.3555-3.1992-6.8047-4.2461 0.22266-0.32422 0.46094-0.62109 0.71875-0.89453 0.77344-0.8125 1.7188-1.3984 2.8398-1.7539 1.7031-0.5625 3.3125-0.41797 4.8281 0.43359 1.5312 0.83984 2.5117 2.1328 2.9492 3.8789 0.42969 1.7344 0.20312 3.418-0.69531 5.0508-0.17578 0.3125-0.37109 0.61328-0.58594 0.88672-0.92188-1.168-2.0078-2.2891-3.25-3.3555zm-39.805 3.3359 0.003906 0.003906c0.92969-1.1641 2.0156-2.2773 3.25-3.3398 2.0898-1.7891 4.3555-3.2109 6.8008-4.2695-0.86719-1.2695-2.0469-2.1484-3.5312-2.6211-1.7031-0.5625-3.3164-0.41797-4.8359 0.42969-1.5312 0.83984-2.5117 2.1328-2.9492 3.8789-0.42969 1.7344-0.20312 3.418 0.69531 5.0508 0.17188 0.30859 0.35938 0.59766 0.5625 0.86719 0.003907 0.003906 0.003907 0.003906 0.003907 0zm-4.3789 57.797c-1.4922-0.59766-2.8555-0.54688-4.0898 0.15625-1.2305 0.70312-1.9766 1.8555-2.2344 3.4531-0.23438 1.6055 0.085937 3.1875 0.96875 4.7344 0.88672 1.543 2.0742 2.6172 3.5664 3.2148 1.5156 0.60547 2.8906 0.55469 4.1211-0.14844 1.2305-0.70312 1.9648-1.8555 2.2031-3.4609 0.25781-1.5977-0.054688-3.168-0.9375-4.7148-0.87891-1.5508-2.082-2.6289-3.5977-3.2344zm-4.6172-2.625c0.45312-0.42969 0.67969-0.95703 0.67969-1.5859 0-0.62891-0.23047-1.1719-0.67969-1.6211-0.42969-0.42969-0.95703-0.64453-1.5859-0.64453-0.62891 0-1.1719 0.21484-1.6211 0.64453-0.42969 0.45312-0.64453 0.99609-0.64453 1.6211 0 0.62891 0.21484 1.1562 0.64453 1.5859 0.45312 0.45312 0.99609 0.67969 1.6211 0.67969 0.62891-0.007812 1.1562-0.23047 1.5859-0.67969zm4.375-0.66016c0.51562 0 0.94922-0.18359 1.3008-0.55859 0.37109-0.35156 0.55859-0.78516 0.55859-1.3008 0-0.51563-0.1875-0.96094-0.55859-1.332-0.35156-0.35156-0.78516-0.52734-1.3008-0.52734s-0.96094 0.17578-1.332 0.52734c-0.35156 0.37109-0.52734 0.81641-0.52734 1.332 0 0.51562 0.17578 0.94922 0.52734 1.3008 0.37109 0.37109 0.81641 0.55859 1.332 0.55859zm-9.8359 1.4375c-0.51563 0-0.96094 0.17578-1.332 0.52734-0.35156 0.37109-0.52734 0.81641-0.52734 1.332 0 0.51562 0.17578 0.94922 0.52734 1.3008 0.37109 0.37109 0.81641 0.55859 1.332 0.55859 0.51562 0 0.94922-0.1875 1.3008-0.55859 0.37109-0.35156 0.55859-0.78516 0.55859-1.3008 0-0.51563-0.1875-0.96094-0.55859-1.332-0.35156-0.35156-0.78516-0.52734-1.3008-0.52734zm74.41 8.0273c-1.2656 2.8633-3.0273 5.1836-5.2188 6.8867-2.2773 1.8789-4.7891 2.8242-7.4883 2.8242-0.46094 0-0.92578-0.03125-1.3945-0.085938-0.003906 0-0.011719 0.003906-0.015625 0.003906h-0.03125c-1.7461 0-3.75-0.67969-6.0586-2.0352-0.058593-0.03125-0.11719-0.058594-0.17187-0.09375-0.019532-0.011718-0.03125-0.03125-0.050782-0.042968-1.1602-0.69922-2.3906-1.5508-3.7109-2.5938-3.5273-2.793-5.9414-5.7578-7.1992-8.832-2.2734 1.6914-4.5781 3.2227-6.8945 4.5391-0.074219 0.042969-0.16406 0.066406-0.25 0.066406-0.089844 0-0.17578-0.023437-0.25391-0.066406-2.3008-1.3086-4.6055-2.832-6.8633-4.5156-1.2617 3.0664-3.6719 6.0234-7.1875 8.8086-1.3203 1.043-2.5508 1.8945-3.7109 2.5938-0.019532 0.015624-0.03125 0.03125-0.050782 0.042968-0.058593 0.035156-0.11719 0.058594-0.17187 0.09375-2.3086 1.3555-4.3164 2.0352-6.0586 2.0352h-0.03125c-0.007813 0-0.011719-0.003906-0.015625-0.003906-0.46875 0.054688-0.93359 0.085938-1.3945 0.085938-2.6953 0-5.207-0.94531-7.4883-2.8242-2.1914-1.707-3.9492-4.0234-5.2188-6.8867-1.6758-3.7578-1.9961-7.2695-0.94922-10.441 1.0547-3.1797 3.1523-5.4531 6.2344-6.7578 1.4922-0.63281 2.9375-0.94141 4.3203-0.96484-0.074219-0.054688-0.15234-0.10547-0.22266-0.16406-2.2617-1.8203-3.4844-4.0469-3.6367-6.6133 0-0.011719 0.003906-0.019531 0.003906-0.03125-0.058594-0.51953-0.09375-1.0586-0.070312-1.6406 0.10938-2.7852 1.1211-5.5742 3.0117-8.2812 1.8906-2.7148 4.1719-4.6406 6.7656-5.7188 0.027343-0.011719 0.050781-0.015625 0.078124-0.027344-2.2461-3.0469-3.3789-6.7461-3.3789-11.055 0-2.7617 0.51562-5.3789 1.5312-7.7891-0.54688-0.66797-1.043-1.4102-1.4883-2.207-1.7031-3.0742-2.1992-6.2734-1.4844-9.5078 0.72266-3.2539 2.4844-5.6797 5.2344-7.207 2.7539-1.5273 5.7344-1.7305 8.8711-0.59766 2.8242 0.98438 5.0977 2.8125 6.7656 5.4297 2.1836-0.48828 4.5039-0.73438 6.9062-0.73438 2.418 0 4.7539 0.25 6.9414 0.74219 1.668-2.6211 3.9453-4.4492 6.7773-5.4375 3.1328-1.1289 6.1133-0.92969 8.8672 0.59766 2.75 1.5273 4.5117 3.9492 5.2344 7.207 0.71875 3.2344 0.21875 6.4258-1.4844 9.5-0.44922 0.80469-0.94922 1.5586-1.5 2.2305 1.0117 2.4023 1.5234 5.0156 1.5234 7.7695 0 4.207-1.2695 7.8672-3.7734 10.949 0.125 0.046875 0.25 0.082032 0.375 0.13672 2.5938 1.0781 4.875 3.0039 6.7656 5.7188 1.8906 2.7109 2.9023 5.5 3.0117 8.2812 0.023437 0.58594-0.011719 1.1289-0.070313 1.6523 0 0.007812 0.003907 0.011719 0.003907 0.019531-0.15234 2.5664-1.375 4.7891-3.6367 6.6133-0.074219 0.058594-0.15234 0.10547-0.22266 0.16406 1.3906 0.015625 2.8438 0.32812 4.3438 0.96484 3.0781 1.3008 5.1758 3.5781 6.2344 6.7578 1.0469 3.168 0.72266 6.6836-0.95312 10.441zm-15.852-39.688c-0.042969-0.015625-0.082031-0.027344-0.125-0.042968 1.625 1.7852 2.7461 3.8359 3.375 6.1172 0.14062 0.082031 0.23047 0.22266 0.24609 0.38281 0.003906 0.058593 0.003906 0.11719-0.011719 0.17969-0.070312 0.27734-0.35156 0.44141-0.625 0.36328-2.0156-0.53125-3.5898-0.80469-4.6797-0.80469-2.957 0-5.3086 0.80859-6.9961 2.3984-1.6836 1.5898-2.4883 3.4961-2.4648 5.8398 0.011719 2.3164 0.86328 4.3672 2.5195 6.0781 1.6523 1.6992 3.9883 2.5547 6.9375 2.5547 2.9727 0 5.543-0.84375 7.6328-2.5078 2.0547-1.6523 3.1172-3.5781 3.2539-5.8711 0-0.027344 0.015625-0.050781 0.019531-0.078125-0.015624 0-0.027343-0.003906-0.042968-0.003906 0.054687-0.47656 0.078125-0.98047 0.058594-1.5273-0.10156-2.5938-1.0469-5.1992-2.8242-7.7461-1.7656-2.543-3.8789-4.3359-6.2734-5.332zm-44.23-0.92969c0.050782-0.046875 0.097657-0.097657 0.14844-0.14453l0.18359-0.18359c0.003906-0.003906 0.011718-0.011719 0.015625-0.019532 3.1875-2.8633 6.9805-4.1992 11.266-3.9727 3.918 0.20312 7.2812 2.2617 10 6.1328 2.7188-3.8711 6.082-5.9336 10.004-6.1328 4.2812-0.23047 8.0703 1.1094 11.262 3.9727 0.039062 0.035157 0.074219 0.070313 0.10938 0.10547 2.6523-3.0117 3.9961-6.6367 3.9961-10.828 0-2.7227-0.52344-5.2969-1.5625-7.6484-0.078126-0.17969-0.046876-0.38672 0.078124-0.53516 0.58594-0.6875 1.1172-1.4648 1.5898-2.3125 1.5781-2.8477 2.043-5.8008 1.3828-8.7812-0.66797-3-2.2188-5.1367-4.7344-6.5312-2.5156-1.3945-5.1406-1.5703-8.0273-0.52734-2.7188 0.94922-4.8828 2.7422-6.4414 5.3164-0.11328 0.1875-0.33984 0.28516-0.55859 0.23438-2.2109-0.52734-4.5898-0.80078-7.0664-0.80078-2.457 0-4.8242 0.26562-7.0352 0.78906-0.21484 0.054688-0.44141-0.042969-0.55469-0.23438-1.5547-2.5742-3.7109-4.3594-6.4258-5.3047-1.2422-0.44922-2.4297-0.67188-3.582-0.67188-1.5391 0-3.0117 0.39844-4.457 1.1953-2.5156 1.3984-4.0664 3.5312-4.7344 6.5312-0.66406 2.9766-0.19922 5.9336 1.375 8.7852 0.46484 0.83594 1 1.6094 1.5781 2.2891 0.12891 0.14844 0.16016 0.35938 0.078125 0.54297-1.043 2.3594-1.5703 4.9414-1.5703 7.6719 0.011719 4.3672 1.2461 8.0742 3.6836 11.062zm-6.832 21.492c2.0898 1.6641 4.6602 2.5078 7.6328 2.5078 2.9492 0 5.2812-0.85938 6.9375-2.5547 1.6602-1.7109 2.5078-3.7617 2.5195-6.0781 0.027344-2.3438-0.77734-4.2539-2.4648-5.8398-1.6836-1.5898-4.0391-2.3984-6.9961-2.3984-1.0898 0-2.6641 0.27344-4.6797 0.80469-0.27344 0.074219-0.55469-0.089843-0.625-0.36328-0.015625-0.058593-0.015625-0.12109-0.011719-0.17969 0.015625-0.17188 0.11719-0.31641 0.27344-0.39453 0.625-2.2812 1.7578-4.3359 3.3906-6.1211-0.054688 0.023437-0.10938 0.035156-0.16406 0.058593-2.3945 0.99609-4.5078 2.7891-6.2812 5.332-1.7734 2.5469-2.7227 5.1562-2.8242 7.7461-0.019531 0.55078 0.003907 1.0547 0.058594 1.5312-0.015625 0-0.03125 0.003906-0.046875 0.003906 0.003907 0.027344 0.019531 0.050781 0.019531 0.078125 0.14453 2.2891 1.2109 4.2109 3.2617 5.8672zm20.457 14.531c-0.22656-0.17188-0.45312-0.33984-0.67969-0.51562-3.9883-2.9492-7.7344-6.2852-11.176-9.8984-0.37891 0.13281-0.75391 0.28125-1.125 0.44141 0.42969 0.42578 0.85156 0.87109 1.25 1.3672 0.17578 0.21875 0.14062 0.54297-0.078125 0.72266-0.21875 0.17578-0.53906 0.14062-0.72266-0.078125-0.95703-1.1914-2.0234-2.168-3.1719-2.8984-0.47656-0.30469-0.98047-0.5625-1.4961-0.79297-0.41797-0.13281-0.82812-0.28906-1.2266-0.46484-0.5625-0.17969-1.1406-0.32812-1.7383-0.41797-1.4492-0.10156-3.0039 0.19531-4.6289 0.88281-2.8359 1.1992-4.6875 3.207-5.6602 6.1367-0.96484 2.9219-0.66016 6.1875 0.91406 9.7031 1.1992 2.7109 2.8555 4.8945 4.9141 6.4961 0.003907 0 0.003907 0.003906 0.007813 0.003906l0.007813 0.007813c2.7695 2.2812 5.7812 3.0547 9.1875 2.3398 0.86328-0.16797 1.7109-0.41797 2.543-0.73828 0.69141-0.26562 1.3672-0.59375 2.0273-0.96094 1.2031-0.69922 2.4961-1.5938 3.8789-2.6836 3.4844-2.7578 5.8164-5.6641 6.9727-8.6523zm18.602-3.4336c2.5195-2.0508 4.9414-4.2695 7.207-6.6055 0.34766-0.35938 0.67578-0.73047 1.0078-1.1016-2.3242-0.32031-4.2383-1.2266-5.6992-2.7227-1.8516-1.9141-2.7969-4.1953-2.8125-6.7891-0.027344-2.6094 0.90625-4.8281 2.7852-6.5977 1.8828-1.7734 4.4727-2.6758 7.6992-2.6758 0.99219 0 2.2891 0.19922 3.9102 0.58594-0.74609-2.3125-2.0508-4.3516-3.9297-6.0859-0.003906-0.003906-0.007813-0.007813-0.015625-0.019531-0.058594-0.058594-0.11719-0.11328-0.17969-0.17188-2.9727-2.6758-6.5195-3.9219-10.52-3.7109-3.6758 0.1875-6.8398 2.1953-9.4062 5.9727 0 0-0.003906 0.003906-0.003906 0.007812-0.066406 0.09375-0.125 0.18359-0.17578 0.28125-0.003906 0.007812-0.007812 0.015625-0.015624 0.023438l-0.019532 0.03125c-0.082031 0.12891-0.22266 0.21094-0.37891 0.22266-0.15234 0.015625-0.30469-0.039063-0.41406-0.14844-0.046876-0.046875-0.078126-0.097656-0.10547-0.14062-2.6016-3.9492-5.8242-6.0547-9.5898-6.2461-4.0039-0.21094-7.5391 1.0352-10.523 3.7031l-0.17969 0.17969c-0.003906 0.003906-0.007812 0.007812-0.015625 0.011719-1.8789 1.7383-3.1953 3.7812-3.9336 6.082 1.6094-0.38281 2.9023-0.58203 3.8906-0.58203 3.2227 0 5.8164 0.90234 7.6992 2.6758 1.8789 1.7695 2.8125 3.9883 2.7852 6.5977-0.011719 2.5898-0.95703 4.875-2.8125 6.7891-1.5117 1.5469-3.5156 2.4648-5.9492 2.7539 3.3945 3.5703 7.0977 6.8672 11.047 9.7852 2.6367 2.0703 5.332 3.9062 8.0273 5.457 3.582-2.0586 7.1562-4.6055 10.621-7.5625zm27.836-2.0859c-0.97266-2.9297-2.8242-4.9336-5.6602-6.1367-1.625-0.69141-3.1797-0.98438-4.6289-0.88281-0.62109 0.09375-1.2188 0.25-1.8008 0.4375-0.36328 0.16016-0.73828 0.30078-1.1211 0.42578-0.52734 0.23438-1.0469 0.49609-1.5352 0.80859-1.1484 0.73047-2.2109 1.707-3.1719 2.8984-0.17969 0.21875-0.5 0.25391-0.72266 0.078125-0.21875-0.17969-0.25391-0.5-0.078126-0.72266 0.39844-0.49219 0.81641-0.94141 1.25-1.3672-0.44922-0.19141-0.90234-0.36328-1.3594-0.51563-0.35156 0.39063-0.69922 0.78516-1.0664 1.1641-2.293 2.3633-4.7422 4.6094-7.2852 6.6758-1.082 0.92188-2.1758 1.793-3.2773 2.6328 1.1562 2.9961 3.4883 5.9062 6.9727 8.6641 1.3828 1.0938 2.6758 1.9844 3.8789 2.6836 0.66406 0.37109 1.3398 0.69531 2.0273 0.96094 0.83203 0.32031 1.6797 0.57031 2.543 0.73828 3.4102 0.71094 6.418-0.058594 9.1875-2.3398 0.003906-0.003906 0.003906-0.003906 0.007813-0.007812 0.003906 0 0.003906-0.003907 0.007812-0.003907 2.0586-1.6016 3.7109-3.7891 4.9141-6.4961 1.5781-3.5078 1.8789-6.7734 0.91797-9.6953zm-8.4922 4.0938c-1.2305-0.70312-2.5938-0.75391-4.0859-0.16016-1.5156 0.60547-2.7188 1.6836-3.5977 3.2305-0.87891 1.5469-1.1992 3.1172-0.93359 4.7188 0.23828 1.6055 0.97266 2.7617 2.1992 3.4648 1.2305 0.70312 2.6094 0.75391 4.1211 0.14844 1.4883-0.60156 2.6719-1.6719 3.5586-3.2148 0.88281-1.5469 1.2031-3.1289 0.97266-4.7305-0.25781-1.5977-1.0039-2.7539-2.2344-3.457zm3.7383-5.9922c-0.45312-0.42969-0.99609-0.64453-1.6211-0.64453-0.62891 0-1.1562 0.21484-1.5859 0.64453-0.45312 0.45312-0.67969 0.99609-0.67969 1.6211 0 0.62891 0.23047 1.1562 0.67969 1.5859 0.42969 0.45312 0.95703 0.67188 1.5859 0.67969 0.62891 0 1.1719-0.23047 1.6211-0.67969 0.42969-0.42969 0.64453-0.95703 0.64453-1.5859-0.003907-0.62891-0.21484-1.1719-0.64453-1.6211zm-7.5859 2.5469c0.51562 0 0.96094-0.1875 1.332-0.55859 0.35156-0.35156 0.52734-0.78516 0.52734-1.3008 0-0.51563-0.17578-0.96094-0.52734-1.332-0.37109-0.35156-0.81641-0.52734-1.332-0.52734s-0.94922 0.17578-1.3008 0.52734c-0.37109 0.37109-0.55859 0.81641-0.55859 1.332 0 0.51562 0.1875 0.94922 0.55859 1.3008 0.35156 0.375 0.78516 0.55859 1.3008 0.55859zm9.8398 1.4375c-0.51562 0-0.94922 0.17578-1.3008 0.52734-0.37109 0.37109-0.55859 0.81641-0.55859 1.332 0 0.51562 0.1875 0.94922 0.55859 1.3008 0.35156 0.37109 0.78516 0.55859 1.3008 0.55859 0.51563 0 0.96094-0.1875 1.332-0.55859 0.35156-0.35156 0.52734-0.78516 0.52734-1.3008 0-0.51563-0.17578-0.96094-0.52734-1.332-0.37109-0.35156-0.81641-0.52734-1.332-0.52734zm-40.957-41.941c0.054688 0.94141 0.59766 1.6836 1.6328 2.207 0.49609 0.24219 1.0234 0.35937 1.5898 0.35937 0.54297 0 1.1172-0.11328 1.7148-0.33984 0.59375 0.22266 1.1641 0.33594 1.6953 0.33594 0.56641 0 1.1016-0.125 1.5977-0.375 1.0234-0.51172 1.5742-1.25 1.6367-2.1914 0.019531-0.28125-0.19922-0.52344-0.48047-0.54297s-0.52344 0.19922-0.54297 0.48047c-0.035156 0.5625-0.38672 1-1.0742 1.3398-0.64453 0.32031-1.3789 0.33203-2.2227 0.066406v-2.3516c0.30078-0.066407 0.57422-0.19531 0.80859-0.39063 0.375-0.27344 0.5625-0.62109 0.5625-1.0391 0-0.40625-0.1875-0.75391-0.5625-1.0391-0.35938-0.28906-0.80078-0.43359-1.3203-0.43359-0.50781 0-0.94531 0.14453-1.3203 0.43359-0.35938 0.28906-0.54297 0.63281-0.54297 1.0391 0 0.41797 0.17969 0.76562 0.54297 1.0391 0.24219 0.19531 0.51562 0.32031 0.80859 0.39063v2.293c-0.9375 0.34375-1.7383 0.33984-2.4414 0-0.6875-0.34766-1.0352-0.79297-1.0664-1.3516-0.015625-0.28125-0.25391-0.49219-0.54297-0.48047-0.27344 0.027344-0.48828 0.26953-0.47266 0.55078zm-1.6562-3.9414c0.61719 0 1.1406-0.26562 1.5781-0.78906 0.4375-0.52734 0.65234-1.1602 0.65234-1.9062 0-0.74609-0.21875-1.3789-0.65234-1.9062-0.4375-0.52734-0.96094-0.78906-1.5781-0.78906-0.61719 0-1.1406 0.26562-1.5781 0.78906-0.4375 0.52734-0.65234 1.1602-0.65234 1.9062 0 0.74609 0.21875 1.3789 0.65234 1.9062 0.4375 0.53125 0.96094 0.78906 1.5781 0.78906zm13.434 0c0.61719 0 1.1406-0.26562 1.5781-0.78906 0.4375-0.52734 0.65234-1.1602 0.65234-1.9062 0-0.74609-0.21875-1.3789-0.65234-1.9062-0.4375-0.52734-0.96094-0.78906-1.5781-0.78906s-1.1406 0.26562-1.5781 0.78906c-0.4375 0.52734-0.65234 1.1602-0.65234 1.9062 0 0.74609 0.21875 1.3789 0.65234 1.9062 0.44141 0.53125 0.96484 0.78906 1.5781 0.78906z"/>
<text x="0.0" y="117.5" font-size="5.0" font-weight="bold" font-family="Arbeit Regular, Helvetica, Arial-Unicode, Arial, Sans-serif" fill="#000000">Created by Veronica</text><text x="0.0" y="122.5" font-size="5.0" font-weight="bold" font-family="Arbeit Regular, Helvetica, Arial-Unicode, Arial, Sans-serif" fill="#000000">from Noun Project</text></svg>