<svg xmlns="http://www.w3.org/2000/svg" version="1.1" viewBox="-5.0 -10.0 110.0 135.0">
 <path d="m78.414 54.031-0.003906 0.003906-0.015625 0.011719-0.10938 0.10156-0.03125 0.035156-0.10547 0.11328c-0.99609 0.98828-2.0703 1.8555-3.207 2.5859-3.8438 2.582-8.3047 3.8789-12.758 3.8789-4.3516 0-8.7109-1.2383-12.5-3.707l-26.691 26.684-0.007813 0.007813-0.066406 0.0625-0.023438 0.023437-0.046875 0.039063c-0.90234 0.82031-2.0625 1.25-3.2109 1.2578h-0.007813v0.003906c-1.207 0-2.4375-0.46484-3.3555-1.3867l-0.011719-0.007813-0.003907-0.003906c-0.92187-0.92188-1.3906-2.1484-1.3906-3.3633s0.46875-2.4336 1.3906-3.3594l0.003907-0.003907h-0.003907l0.003907-0.007812 26.68-26.68c-2.4688-3.7891-3.7031-8.1523-3.7031-12.504 0-5.8633 2.2422-11.73 6.7148-16.207l0.003906-0.003906h-0.003906l0.011719-0.015625 0.003906-0.003906c4.4766-4.4727 10.348-6.7188 16.215-6.7188 5.8633 0 11.738 2.25 16.215 6.7188h0.003906l0.007812 0.003906 0.003906 0.007812 0.097657 0.10547c4.3984 4.4648 6.6211 10.293 6.6211 16.113 0 5.8633-2.25 11.73-6.7188 16.215zm-57.961 27.164 26.359-26.352-0.83203-0.79688-0.015625-0.011719-0.011719-0.015625-0.79688-0.83203-26.352 26.355-0.003907 0.003906c-0.21484 0.21094-0.33203 0.52344-0.33203 0.82422 0 0.29688 0.11719 0.60938 0.33203 0.82031l0.003907 0.003906 0.007812 0.011719c0.21484 0.21094 0.51953 0.32422 0.81641 0.32422v0.003906c0.28516 0 0.57422-0.10156 0.78125-0.29688l0.035156-0.03125zm55.418-57.059-0.007813-0.007813c-3.7695-3.7656-8.7266-5.6602-13.68-5.6602-4.9453 0-9.9023 1.8867-13.672 5.6602l-0.019531 0.019532c-3.7656 3.7695-5.6523 8.7148-5.6523 13.668 0 4.9453 1.8867 9.8984 5.6523 13.66l0.03125 0.03125c0.31641 0.31641 0.64453 0.62109 0.98047 0.91406-2.4766-3.332-3.7109-7.3359-3.6758-11.328 0.039063-4.8555 1.9414-9.7344 5.6641-13.453l0.015624-0.015625c2.8789-2.8789 6.6523-4.3438 10.398-4.3711 3.7109-0.027344 7.4219 1.3438 10.262 4.1211l0.03125 0.03125 0.066406 0.0625 0.011719 0.007812 0.003906 0.007813c2.8477 2.8477 4.2578 6.6133 4.2266 10.375-0.027343 3.7461-1.4961 7.5234-4.375 10.402l-0.007812 0.007812v-0.003906l-0.003906 0.003906c-2.0352 2.0312-4.7031 3.0703-7.3516 3.0898-2.6602 0.019531-5.3281-0.97656-7.3438-2.9883l-0.003906-0.007813c-2.0156-2.0156-3.0117-4.6836-2.9961-7.3438 0.019531-2.6523 1.0625-5.3281 3.0977-7.3633 1.1875-1.1875 2.7617-1.793 4.3086-1.8047 1.5586-0.007812 3.1289 0.57422 4.3125 1.7539l0.007813 0.007812c1.1797 1.1836 1.7617 2.7578 1.7539 4.3047-0.007812 1.5039-0.58203 3.0078-1.6953 4.1836l-0.10938 0.11719-0.007812 0.007812c-0.70312 0.69922-1.8438 0.69922-2.543 0-0.69922-0.69922-0.69922-1.8438 0-2.5391l0.007813-0.011719 0.058594-0.054687c0.45312-0.48438 0.69141-1.1133 0.69922-1.7305 0.003906-0.62109-0.23438-1.2617-0.70312-1.7344l-0.011719-0.007812c-0.47266-0.47266-1.1133-0.70703-1.7422-0.70703-0.64062 0.007813-1.3008 0.26172-1.7969 0.75781-1.3398 1.3438-2.0312 3.1094-2.0469 4.8477-0.011719 1.7305 0.64062 3.4688 1.9492 4.7773l0.003906 0.003906c1.3086 1.3086 3.043 1.957 4.7734 1.9414 1.7383-0.015625 3.5-0.69922 4.8438-2.043l0.007812-0.007812c2.1875-2.1875 3.3008-5.0547 3.3242-7.8906 0.023437-2.8281-1.0391-5.6641-3.1797-7.8047l-0.011719-0.011719-0.0625-0.066407-0.035156-0.035156c-2.1133-2.0586-4.9062-3.0898-7.6953-3.0664-2.832 0.027344-5.6953 1.1367-7.8867 3.3203l-0.007813 0.011719-0.003906 0.003907c-3.0352 3.0312-4.582 7.0039-4.6172 10.941-0.03125 3.9336 1.4414 7.8594 4.4102 10.832h0.003906c2.9766 2.9805 6.9023 4.4453 10.832 4.4102 2.8398-0.023437 5.6992-0.83203 8.207-2.418 1.0352-0.68359 2.0195-1.4766 2.9297-2.3828l0.050781-0.054688 0.019532-0.019531c3.7656-3.7695 5.6602-8.7227 5.6602-13.672 0-4.9297-1.8711-9.8633-5.6016-13.629zm2.543 29.887v0.007812m-0.14453 0.13672z"/>
<text x="0.0" y="117.5" font-size="5.0" font-weight="bold" font-family="Arbeit Regular, Helvetica, Arial-Unicode, Arial, Sans-serif" fill="#000000">Created by Alvida</text><text x="0.0" y="122.5" font-size="5.0" font-weight="bold" font-family="Arbeit Regular, Helvetica, Arial-Unicode, Arial, Sans-serif" fill="#000000">from Noun Project</text></svg>