<svg xmlns="http://www.w3.org/2000/svg" viewBox="0 0 64 80" x="0px" y="0px"><g><path d="M59.52,62.6H20.06a3.23,3.23,0,0,1-3.23-3.23V39.65a.75.75,0,0,1,.75-.75h6.27a5.05,5.05,0,0,1,.43-4,5,5,0,0,1,8.81,0,5.07,5.07,0,0,1,.44,4H39V32.33a.74.74,0,0,1,.38-.65.77.77,0,0,1,.75,0,3.43,3.43,0,0,0,3.51-.11,3.51,3.51,0,0,0,0-6.06,3.43,3.43,0,0,0-3.51-.11.72.72,0,0,1-.75,0,.75.75,0,0,1-.38-.65V17.44a.75.75,0,0,1,.75-.75H59.52a3.23,3.23,0,0,1,3.23,3.23V59.37A3.23,3.23,0,0,1,59.52,62.6Zm-19-1.5h19a1.73,1.73,0,0,0,1.73-1.73v-19H55.73a5,5,0,0,1-.16,3.41c-.08.19-.17.37-.27.56A5,5,0,0,1,51.13,47h-.26a4.69,4.69,0,0,1-3.19-1.16h0a5.32,5.32,0,0,1-1.17-1.44h0a5,5,0,0,1-.43-4H40.54v6.83h0a1,1,0,0,1-.08.29h0a.75.75,0,0,1-.91.33h0l-.17-.09a3.53,3.53,0,0,0-1.94-.66,3.8,3.8,0,0,0-3,1.5,3.49,3.49,0,0,0-.66,2.06v.14a3.44,3.44,0,0,0,1.92,3,3.88,3.88,0,0,0,.71.28,3.35,3.35,0,0,0,3-.48.75.75,0,0,1,.79-.07.74.74,0,0,1,.41.63h0ZM18.33,40.4v19a1.73,1.73,0,0,0,1.73,1.73H39V55.53a5,5,0,0,1-3.16,0h0a5.11,5.11,0,0,1-.91-.37,4.91,4.91,0,0,1-2.73-4.3v-.18a4.6,4.6,0,0,1,1-3.07,5,5,0,0,1,4-2h.09A4.81,4.81,0,0,1,39,46V40.4h-6.7a.75.75,0,0,1-.66-.4.74.74,0,0,1,0-.77,3.58,3.58,0,0,0-3-5.42,3.35,3.35,0,0,0-3.11,1.84,3.43,3.43,0,0,0,.06,3.58.76.76,0,0,1,0,.77.77.77,0,0,1-.66.4Zm32.54,5.08h.43A3.44,3.44,0,0,0,54,43.64c.07-.13.13-.27.19-.4a3.38,3.38,0,0,0-.25-3.17h0a.76.76,0,0,1,0-.77.61.61,0,0,1,.12-.16h0a.77.77,0,0,1,.46-.2h6.76v-19a1.73,1.73,0,0,0-1.73-1.73h-19v5.45a5.12,5.12,0,0,1,3.91.58,5,5,0,0,1,0,8.64,5.08,5.08,0,0,1-3.91.58V38.9h6.73a.77.77,0,0,1,.64.39v0h0a.71.71,0,0,1,0,.68h0v0h0a3.44,3.44,0,0,0-.07,3.57l0,0h0a4.16,4.16,0,0,0,.62.8h0a3.37,3.37,0,0,0,2.4,1S50.88,45.49,50.87,45.48ZM16.67,34.3a.74.74,0,0,1-.53-.22L2.19,20.13a3.24,3.24,0,0,1,0-4.56l14-13.95a.74.74,0,0,1,1.06,0L21.59,6a5.11,5.11,0,0,1,3.17-2.35A4.88,4.88,0,0,1,29.57,5a4.88,4.88,0,0,1,1.3,4.81,5,5,0,0,1-2.35,3.17l4.39,4.39a.75.75,0,0,1,0,1.06l-5.27,5.27a.77.77,0,0,1-.75.19.75.75,0,0,1-.52-.58,3.59,3.59,0,0,0-6-1.7,3.59,3.59,0,0,0,1.68,6,.74.74,0,0,1,.57.52.73.73,0,0,1-.19.74L17.2,34.08A.71.71,0,0,1,16.67,34.3Zm0-31.09L3.25,16.63a1.73,1.73,0,0,0,0,2.44L16.67,32.49l3.9-3.9a5,5,0,0,1-2.49-3.11,5,5,0,0,1,6.23-6.23,5.07,5.07,0,0,1,3.11,2.5l3.9-3.9-4.65-4.64a.75.75,0,0,1-.19-.73A.75.75,0,0,1,27,12a3.45,3.45,0,0,0,2.41-2.56A3.41,3.41,0,0,0,28.52,6l0,0a3.41,3.41,0,0,0-3.36-.9,3.45,3.45,0,0,0-2.56,2.41A.75.75,0,0,1,22,8a.74.74,0,0,1-.72-.19Z"/></g><text x="0" y="79" fill="#000000" font-size="5px" font-weight="bold" font-family="'Helvetica Neue', Helvetica, Arial-Unicode, Arial, Sans-serif">Created by Dicky Prayudawanto</text><text x="0" y="84" fill="#000000" font-size="5px" font-weight="bold" font-family="'Helvetica Neue', Helvetica, Arial-Unicode, Arial, Sans-serif">from the Noun Project</text></svg>